<mxfile host="65bd71144e">
    <diagram id="t1ZZF4EtjhizyDLAjCeQ" name="Page-1">
        <mxGraphModel dx="816" dy="499" grid="1" gridSize="10" guides="1" tooltips="1" connect="1" arrows="1" fold="1" page="1" pageScale="1" pageWidth="850" pageHeight="1100" math="0" shadow="0">
            <root>
                <mxCell id="0"/>
                <mxCell id="1" parent="0"/>
                <mxCell id="2" value="Room" style="swimlane;fontStyle=1;align=center;verticalAlign=top;childLayout=stackLayout;horizontal=1;startSize=26;horizontalStack=0;resizeParent=1;resizeParentMax=0;resizeLast=0;collapsible=1;marginBottom=0;" parent="1" vertex="1">
                    <mxGeometry y="80" width="140" height="140" as="geometry"/>
                </mxCell>
                <mxCell id="3" value="- type: str&#10;- size: int" style="text;strokeColor=none;fillColor=none;align=left;verticalAlign=top;spacingLeft=4;spacingRight=4;overflow=hidden;rotatable=0;points=[[0,0.5],[1,0.5]];portConstraint=eastwest;" parent="2" vertex="1">
                    <mxGeometry y="26" width="140" height="54" as="geometry"/>
                </mxCell>
                <mxCell id="4" value="" style="line;strokeWidth=1;fillColor=none;align=left;verticalAlign=middle;spacingTop=-1;spacingLeft=3;spacingRight=3;rotatable=0;labelPosition=right;points=[];portConstraint=eastwest;strokeColor=inherit;" parent="2" vertex="1">
                    <mxGeometry y="80" width="140" height="8" as="geometry"/>
                </mxCell>
                <mxCell id="5" value="+__init__(self,room,size)&#10;*__str__(self):str" style="text;strokeColor=none;fillColor=none;align=left;verticalAlign=top;spacingLeft=4;spacingRight=4;overflow=hidden;rotatable=0;points=[[0,0.5],[1,0.5]];portConstraint=eastwest;" parent="2" vertex="1">
                    <mxGeometry y="88" width="140" height="52" as="geometry"/>
                </mxCell>
                <mxCell id="6" value="House" style="swimlane;fontStyle=1;align=center;verticalAlign=top;childLayout=stackLayout;horizontal=1;startSize=26;horizontalStack=0;resizeParent=1;resizeParentMax=0;resizeLast=0;collapsible=1;marginBottom=0;" parent="1" vertex="1">
                    <mxGeometry x="190" y="80" width="270" height="250" as="geometry"/>
                </mxCell>
                <mxCell id="7" value="- address: str&#10;- square_feet: int&#10;- garage: Garage&#10;- rooms: list[Room]&#10;- televisions: list[Television]" style="text;strokeColor=none;fillColor=none;align=left;verticalAlign=top;spacingLeft=4;spacingRight=4;overflow=hidden;rotatable=0;points=[[0,0.5],[1,0.5]];portConstraint=eastwest;" parent="6" vertex="1">
                    <mxGeometry y="26" width="270" height="84" as="geometry"/>
                </mxCell>
                <mxCell id="8" value="" style="line;strokeWidth=1;fillColor=none;align=left;verticalAlign=middle;spacingTop=-1;spacingLeft=3;spacingRight=3;rotatable=0;labelPosition=right;points=[];portConstraint=eastwest;strokeColor=inherit;" parent="6" vertex="1">
                    <mxGeometry y="110" width="270" height="8" as="geometry"/>
                </mxCell>
                <mxCell id="9" value="+__init__self(self,address, square_feet, garage)&#10;+__str__(self):str&#10;+add_room(self,room:Room): None&#10;+add_television(self, television):None&#10;+remove_television(self, television):None&#10;+get_oled_television(self):list[Television]&#10;+get_biggest_room(self):&#10;+is_similar_house(self,other): bool" style="text;strokeColor=none;fillColor=none;align=left;verticalAlign=top;spacingLeft=4;spacingRight=4;overflow=hidden;rotatable=0;points=[[0,0.5],[1,0.5]];portConstraint=eastwest;" parent="6" vertex="1">
                    <mxGeometry y="118" width="270" height="132" as="geometry"/>
                </mxCell>
                <mxCell id="10" value="Garage" style="swimlane;fontStyle=1;align=center;verticalAlign=top;childLayout=stackLayout;horizontal=1;startSize=26;horizontalStack=0;resizeParent=1;resizeParentMax=0;resizeLast=0;collapsible=1;marginBottom=0;" parent="1" vertex="1">
                    <mxGeometry x="530" y="80" width="210" height="130" as="geometry"/>
                </mxCell>
                <mxCell id="11" value="- type: str&#10;- size: int&#10;- door_type: str" style="text;strokeColor=none;fillColor=none;align=left;verticalAlign=top;spacingLeft=4;spacingRight=4;overflow=hidden;rotatable=0;points=[[0,0.5],[1,0.5]];portConstraint=eastwest;" parent="10" vertex="1">
                    <mxGeometry y="26" width="210" height="54" as="geometry"/>
                </mxCell>
                <mxCell id="12" value="" style="line;strokeWidth=1;fillColor=none;align=left;verticalAlign=middle;spacingTop=-1;spacingLeft=3;spacingRight=3;rotatable=0;labelPosition=right;points=[];portConstraint=eastwest;strokeColor=inherit;" parent="10" vertex="1">
                    <mxGeometry y="80" width="210" height="8" as="geometry"/>
                </mxCell>
                <mxCell id="13" value="+__init__(self, type, size, door_type)&#10;+__str__(self): str" style="text;strokeColor=none;fillColor=none;align=left;verticalAlign=top;spacingLeft=4;spacingRight=4;overflow=hidden;rotatable=0;points=[[0,0.5],[1,0.5]];portConstraint=eastwest;" parent="10" vertex="1">
                    <mxGeometry y="88" width="210" height="42" as="geometry"/>
                </mxCell>
                <mxCell id="14" value="Television" style="swimlane;fontStyle=1;align=center;verticalAlign=top;childLayout=stackLayout;horizontal=1;startSize=26;horizontalStack=0;resizeParent=1;resizeParentMax=0;resizeLast=0;collapsible=1;marginBottom=0;" parent="1" vertex="1">
                    <mxGeometry x="530" y="280" width="320" height="150" as="geometry"/>
                </mxCell>
                <mxCell id="15" value="- screen_type: str&#10;- screen_size: int&#10;- resolution: str&#10;- price: float" style="text;strokeColor=none;fillColor=none;align=left;verticalAlign=top;spacingLeft=4;spacingRight=4;overflow=hidden;rotatable=0;points=[[0,0.5],[1,0.5]];portConstraint=eastwest;" parent="14" vertex="1">
                    <mxGeometry y="26" width="320" height="74" as="geometry"/>
                </mxCell>
                <mxCell id="16" value="" style="line;strokeWidth=1;fillColor=none;align=left;verticalAlign=middle;spacingTop=-1;spacingLeft=3;spacingRight=3;rotatable=0;labelPosition=right;points=[];portConstraint=eastwest;strokeColor=inherit;" parent="14" vertex="1">
                    <mxGeometry y="100" width="320" height="8" as="geometry"/>
                </mxCell>
                <mxCell id="17" value="+__init__(self, screen_type, screen_size, resolution, price)&#10;+__str__(self): str" style="text;strokeColor=none;fillColor=none;align=left;verticalAlign=top;spacingLeft=4;spacingRight=4;overflow=hidden;rotatable=0;points=[[0,0.5],[1,0.5]];portConstraint=eastwest;" parent="14" vertex="1">
                    <mxGeometry y="108" width="320" height="42" as="geometry"/>
                </mxCell>
                <mxCell id="19" value="1" style="endArrow=open;html=1;endSize=12;startArrow=diamondThin;startSize=14;startFill=1;edgeStyle=orthogonalEdgeStyle;align=left;verticalAlign=bottom;entryX=-0.009;entryY=0.604;entryDx=0;entryDy=0;entryPerimeter=0;exitX=1.005;exitY=0.841;exitDx=0;exitDy=0;exitPerimeter=0;" parent="1" source="7" target="15" edge="1">
                    <mxGeometry x="-1" y="3" relative="1" as="geometry">
                        <mxPoint x="470" y="180" as="sourcePoint"/>
                        <mxPoint x="490" y="350" as="targetPoint"/>
                    </mxGeometry>
                </mxCell>
                <mxCell id="20" value="1" style="endArrow=open;html=1;endSize=12;startArrow=diamondThin;startSize=14;startFill=0;edgeStyle=orthogonalEdgeStyle;align=left;verticalAlign=bottom;" parent="1" edge="1">
                    <mxGeometry x="-1" y="3" relative="1" as="geometry">
                        <mxPoint x="460" y="130" as="sourcePoint"/>
                        <mxPoint x="530" y="130" as="targetPoint"/>
                        <Array as="points">
                            <mxPoint x="520" y="130"/>
                            <mxPoint x="520" y="130"/>
                        </Array>
                    </mxGeometry>
                </mxCell>
                <mxCell id="21" value="1" style="endArrow=open;html=1;endSize=12;startArrow=diamondThin;startSize=14;startFill=0;edgeStyle=orthogonalEdgeStyle;align=left;verticalAlign=bottom;" parent="1" edge="1">
                    <mxGeometry x="-1" y="3" relative="1" as="geometry">
                        <mxPoint x="190" y="140" as="sourcePoint"/>
                        <mxPoint x="140" y="140" as="targetPoint"/>
                        <Array as="points">
                            <mxPoint x="140" y="140"/>
                        </Array>
                    </mxGeometry>
                </mxCell>
            </root>
        </mxGraphModel>
    </diagram>
</mxfile>